HIERARCHY
ROOT joint_Root
{
	OFFSET 0.0 0.0 0.0
	CHANNELS 6 Xposition Yposition Zposition Zrotation Xrotation Yrotation 
	JOINT Hips
	{
		OFFSET -17.1583 93.1646 452.98
		CHANNELS 6 Xposition Yposition Zposition Zrotation Xrotation Yrotation 
		JOINT Spine
		{
			OFFSET 15.7357 0.0 0.0
			CHANNELS 6 Xposition Yposition Zposition Zrotation Xrotation Yrotation 
			JOINT Chest
			{
				OFFSET 8.98455 -0.406207 0.0
				CHANNELS 6 Xposition Yposition Zposition Zrotation Xrotation Yrotation 
				JOINT Neck
				{
					OFFSET 16.3773 0.0 0.0
					CHANNELS 6 Xposition Yposition Zposition Zrotation Xrotation Yrotation 
					JOINT Head
					{
						OFFSET 6.45672 0.0 0.0
						CHANNELS 6 Xposition Yposition Zposition Zrotation Xrotation Yrotation 
						End Site
						{
							OFFSET 0.0 0.0 0.0
						}
					}
				}
				JOINT Shoulder_L
				{
					OFFSET 12.9942 -0.242716 4.98039
					CHANNELS 6 Xposition Yposition Zposition Zrotation Xrotation Yrotation 
					JOINT UpperArm_L
					{
						OFFSET 5.34809 0.0 0.0
						CHANNELS 6 Xposition Yposition Zposition Zrotation Xrotation Yrotation 
						JOINT LowerArm_L
						{
							OFFSET 24.3286 1.87007e-05 0.0
							CHANNELS 6 Xposition Yposition Zposition Zrotation Xrotation Yrotation 
							JOINT Hand_L
							{
								OFFSET 22.2916 0.0 0.0
								CHANNELS 6 Xposition Yposition Zposition Zrotation Xrotation Yrotation 
								End Site
								{
									OFFSET 0.0 0.0 0.0
								}
							}
						}
					}
				}
				JOINT Shoulder_R
				{
					OFFSET 12.9945 -0.242716 -4.98039
					CHANNELS 6 Xposition Yposition Zposition Zrotation Xrotation Yrotation 
					JOINT UpperArm_R
					{
						OFFSET -5.34813 0.0 0.0
						CHANNELS 6 Xposition Yposition Zposition Zrotation Xrotation Yrotation 
						JOINT LowerArm_R
						{
							OFFSET -24.3289 0.000322201 0.0
							CHANNELS 6 Xposition Yposition Zposition Zrotation Xrotation Yrotation 
							JOINT Hand_R
							{
								OFFSET -22.2915 -0.000108084 0.0
								CHANNELS 6 Xposition Yposition Zposition Zrotation Xrotation Yrotation 
								End Site
								{
									OFFSET 0.0 0.0 0.0
								}
							}
						}
					}
				}
			}
		}
		JOINT UpperLeg_L
		{
			OFFSET -2.19248 -6.46944 0.0
			CHANNELS 6 Xposition Yposition Zposition Zrotation Xrotation Yrotation 
			JOINT LowerLeg_L
			{
				OFFSET 39.0811 0.0 -1.23785e-05
				CHANNELS 6 Xposition Yposition Zposition Zrotation Xrotation Yrotation 
				JOINT Foot_L
				{
					OFFSET 40.9854 0.0 -1.26872e-05
					CHANNELS 6 Xposition Yposition Zposition Zrotation Xrotation Yrotation 
					JOINT Toes_L
					{
						OFFSET 11.7543 0.0 0.0
						CHANNELS 6 Xposition Yposition Zposition Zrotation Xrotation Yrotation 
						End Site
						{
							OFFSET 0.0 0.0 0.0
						}
					}
				}
			}
		}
		JOINT UpperLeg_R
		{
			OFFSET -2.19251 6.46944 0.0
			CHANNELS 6 Xposition Yposition Zposition Zrotation Xrotation Yrotation 
			JOINT LowerLeg_R
			{
				OFFSET -39.0811 -0.00228153 -0.0401928
				CHANNELS 6 Xposition Yposition Zposition Zrotation Xrotation Yrotation 
				JOINT Foot_R
				{
					OFFSET -40.9854 0.0 0.0
					CHANNELS 6 Xposition Yposition Zposition Zrotation Xrotation Yrotation 
					JOINT Toes_R
					{
						OFFSET -11.7543 0.0 0.0
						CHANNELS 6 Xposition Yposition Zposition Zrotation Xrotation Yrotation 
						End Site
						{
							OFFSET 0.0 0.0 0.0
						}
					}
				}
			}
		}
	}
}
MOTION
Frames:	7
Frame Time:	0.0333333
0.000000 0.000000 0.000000 0.000000 0.000000 -0.000000 184.523000 90.961400 -178.522000 92.930200 2.192950 -11.347900 15.735700 0.000005 -0.000001 169.573000 87.774000 -169.782000 8.984550 -0.406207 -0.000000 -6.964080 4.396310 -0.149255 16.377300 -0.000001 -0.000001 1.585530 0.439142 -2.428030 6.456720 -0.000001 -0.000000 6.299510 -2.286930 -0.435392 12.994200 -0.242716 4.980390 -93.134900 8.124670 -68.816800 5.348090 -0.000007 -0.000001 -58.284100 -17.021400 13.105400 24.328600 0.000019 0.000005 6.798640 21.384100 -18.106400 22.291600 -0.000001 0.000005 54.881300 4.430140 17.740100 12.994500 -0.242716 -4.980390 88.814600 4.022800 -73.566800 -5.348130 -0.000001 -0.000004 -69.523800 12.110400 -19.420500 -24.328900 0.000322 -0.000009 1.718950 1.714030 -45.116300 -22.291500 -0.000108 -0.000004 40.237800 5.358580 -1.636580 -2.192480 -6.469440 -0.000000 179.069000 1.237420 -32.695300 39.081100 -0.000007 -0.000012 0.007094 -0.055644 7.265830 40.985400 -0.000006 -0.000013 -11.290200 10.880500 -57.445000 11.754300 -0.000000 0.000003 0.002210 0.111797 -12.043200 -2.192510 6.469440 -0.000001 176.254000 21.173000 -174.658000 -39.081100 -0.002282 -0.040193 -0.010939 0.055634 14.386700 -40.985400 0.000008 0.000006 -11.006200 12.508900 -65.165400 -11.754300 -0.000006 -0.000006 -0.012277 -0.119932 -21.462600
0.000000 0.000000 0.000000 0.000000 0.000000 -0.000000 185.259000 90.724500 -175.303000 93.312500 2.452830 -11.964900 15.735700 0.000005 -0.000001 177.663000 88.065400 -178.088000 8.984550 -0.406207 -0.000000 -7.603890 3.913410 -0.591765 16.377300 -0.000001 -0.000001 1.346940 0.363517 -2.253980 6.456720 -0.000001 -0.000000 6.442630 -2.106820 0.053280 12.994200 -0.242716 4.980390 -93.282600 8.563560 -68.934600 5.348090 -0.000007 -0.000001 -58.626700 -19.010600 12.057200 24.328600 0.000019 0.000005 6.611540 19.394700 -19.242400 22.291600 -0.000001 0.000005 56.004300 4.420700 17.890900 12.994500 -0.242716 -4.980390 88.717200 4.377040 -73.647600 -5.348130 -0.000001 -0.000004 -70.462900 12.429900 -17.138500 -24.328900 0.000322 -0.000009 1.565810 1.706060 -42.584500 -22.291500 -0.000108 -0.000004 40.733800 5.369830 -1.980650 -2.192480 -6.469440 -0.000000 178.308000 1.860640 -33.577700 39.081100 -0.000007 -0.000012 0.014202 -0.078078 10.309900 40.985400 -0.000006 -0.000013 -11.875600 11.937000 -53.695400 11.754300 -0.000000 0.000003 0.002205 0.112055 -12.032700 -2.192510 6.469440 -0.000001 175.237000 20.179000 -175.097000 -39.081100 -0.002282 -0.040193 -0.002353 0.018329 17.215100 -40.985400 0.000008 0.000006 -11.165400 11.631800 -63.197000 -11.754300 -0.000006 -0.000006 -0.034881 -0.239023 -26.378200
0.000000 0.000000 0.000000 0.000000 0.000000 -0.000000 186.115000 90.593600 -171.653000 94.235500 3.028310 -12.107800 15.735700 0.000005 -0.000001 -177.429000 88.354900 176.624000 8.984550 -0.406207 -0.000000 -7.897300 3.388000 -1.379830 16.377300 -0.000001 -0.000001 1.017560 0.091922 -2.179220 6.456720 -0.000001 -0.000000 6.565810 -2.209940 0.629167 12.994200 -0.242716 4.980390 -93.271100 8.661230 -69.217300 5.348090 -0.000007 -0.000001 -60.284000 -20.279700 10.339600 24.328600 0.000019 0.000005 5.806460 16.555700 -19.640100 22.291600 -0.000001 0.000005 57.207300 4.393830 18.319500 12.994500 -0.242716 -4.980390 88.701300 4.433410 -73.655400 -5.348130 -0.000001 -0.000004 -72.121100 12.002700 -13.764600 -24.328900 0.000322 -0.000009 2.136670 2.603080 -39.426700 -22.291500 -0.000108 -0.000004 41.607800 5.392250 -2.683870 -2.192480 -6.469440 -0.000000 176.904000 3.489790 -35.966200 39.081100 -0.000007 -0.000012 -0.003694 0.010933 18.666700 40.985400 -0.000006 -0.000013 -8.171590 12.262500 -56.178900 11.754300 -0.000000 0.000003 0.001946 0.122924 -11.592000 -2.192510 6.469440 -0.000001 173.950000 18.079400 -175.460000 -39.081100 -0.002282 -0.040193 0.019265 -0.042254 20.674400 -40.985400 0.000008 0.000006 -11.169500 9.092730 -60.068500 -11.754300 -0.000006 -0.000006 -0.078130 -0.386678 -32.618700
0.000000 0.000000 0.000000 0.000000 0.000000 -0.000000 186.952000 90.525700 -167.699000 95.080700 3.666150 -11.724700 15.735700 0.000005 -0.000001 -176.010000 88.540400 174.887000 8.984550 -0.406207 -0.000000 -7.944640 3.058070 -2.039360 16.377300 -0.000001 -0.000001 1.028490 -0.300063 -2.082180 6.456720 -0.000001 -0.000000 6.528400 -2.553960 0.965171 12.994200 -0.242716 4.980390 -93.050000 8.223170 -69.568300 5.348090 -0.000007 -0.000001 -63.473300 -20.893900 7.966980 24.328600 0.000019 0.000005 5.182080 14.779700 -19.570600 22.291600 -0.000001 0.000005 58.622800 4.368710 18.718200 12.994500 -0.242716 -4.980390 88.778800 4.147460 -73.576900 -5.348130 -0.000001 -0.000004 -74.186400 10.472100 -9.693570 -24.328900 0.000322 -0.000009 2.394600 3.383140 -35.336700 -22.291500 -0.000108 -0.000004 42.332600 5.430170 -3.941300 -2.192480 -6.469440 -0.000000 175.405000 4.262930 -35.691900 39.081100 -0.000007 -0.000012 -0.005223 0.012042 23.448200 40.985400 -0.000006 -0.000013 -6.466460 12.282300 -57.001500 11.754300 -0.000000 0.000003 0.001315 0.141354 -10.844400 -2.192510 6.469440 -0.000001 173.265000 14.990400 -176.228000 -39.081100 -0.002282 -0.040193 0.056870 -0.112874 25.384500 -40.985400 0.000008 0.000006 -10.084700 5.097210 -55.935000 -11.754300 -0.000006 -0.000006 -0.133670 -0.521418 -38.529800
0.000000 0.000000 0.000000 0.000000 0.000000 -0.000000 187.748000 90.552800 -163.578000 95.627300 3.980290 -10.912200 15.735700 0.000005 -0.000001 -175.182000 88.772300 173.877000 8.984550 -0.406207 -0.000000 -7.945840 2.618870 -2.433460 16.377300 -0.000001 -0.000001 1.474920 -0.391405 -1.911050 6.456720 -0.000001 -0.000000 6.877920 -2.602330 1.049690 12.994200 -0.242716 4.980390 -92.957200 8.044060 -69.737700 5.348090 -0.000007 -0.000001 -66.699700 -20.656500 5.775490 24.328600 0.000019 0.000005 5.319610 14.916500 -19.886000 22.291600 -0.000001 0.000005 59.423400 4.365480 18.770800 12.994500 -0.242716 -4.980390 88.703800 4.343620 -73.366900 -5.348130 -0.000001 -0.000004 -75.152700 9.072970 -6.278110 -24.328900 0.000322 -0.000009 1.801660 3.195280 -29.423200 -22.291500 -0.000108 -0.000004 42.941700 5.456050 -4.855970 -2.192480 -6.469440 -0.000000 174.169000 5.053460 -33.831200 39.081100 -0.000007 -0.000012 0.027714 -0.054325 27.028000 40.985400 -0.000006 -0.000013 -3.066650 12.121800 -60.514000 11.754300 -0.000000 0.000003 0.000021 0.167277 -9.792180 -2.192510 6.469440 -0.000001 173.091000 12.379600 -177.898000 -39.081100 -0.002282 -0.040193 0.110120 -0.174115 31.529600 -40.985400 0.000008 0.000006 -6.672600 1.108000 -49.561300 -11.754300 -0.000006 -0.000006 -0.161529 -0.577008 -41.050900
0.000000 0.000000 0.000000 0.000000 0.000000 -0.000000 188.557000 90.576300 -159.426000 95.843400 4.503250 -9.098540 15.735700 0.000005 -0.000001 165.671000 89.288500 -166.964000 8.984550 -0.406207 -0.000000 -7.396550 1.546590 -2.492600 16.377300 -0.000001 -0.000001 2.059970 -0.173674 -2.130110 6.456720 -0.000001 -0.000000 7.719970 -2.049980 1.375410 12.994200 -0.242716 4.980390 -93.078200 8.405800 -69.803200 5.348090 -0.000007 -0.000001 -69.142900 -18.967600 4.249630 24.328600 0.000019 0.000005 6.006290 15.425900 -21.580200 22.291600 -0.000001 0.000005 60.077700 4.363670 18.799400 12.994500 -0.242716 -4.980390 88.626900 4.542180 -73.160100 -5.348130 -0.000001 -0.000004 -75.554200 7.683790 -3.733940 -24.328900 0.000322 -0.000009 1.023650 2.513310 -22.175200 -22.291500 -0.000108 -0.000004 43.090700 5.465620 -5.210270 -2.192480 -6.469440 -0.000000 173.388000 6.505520 -30.308200 39.081100 -0.000007 -0.000012 0.086387 -0.150867 29.795400 40.985400 -0.000006 -0.000013 -0.390766 11.168800 -64.970800 11.754300 -0.000000 0.000003 -0.000634 0.177694 -9.369010 -2.192510 6.469440 -0.000001 172.816000 10.492600 179.708000 -39.081100 -0.002282 -0.040193 0.188357 -0.222414 39.765100 -40.985400 0.000008 0.000006 -4.973270 -1.655680 -40.982900 -11.754300 -0.000006 -0.000006 -0.073214 -0.372516 -32.011000
0.000000 0.000000 0.000000 0.000000 0.000000 -0.000000 189.288000 90.467500 -155.766000 95.902700 4.467660 -6.916720 15.735700 0.000005 -0.000001 109.984000 89.234000 -111.298000 8.984550 -0.406207 -0.000000 -6.317400 0.683976 -2.592860 16.377300 -0.000001 -0.000001 2.359970 0.076482 -2.353790 6.456720 -0.000001 -0.000000 8.385580 -1.229720 1.819720 12.994200 -0.242716 4.980390 -93.239900 8.930200 -69.964700 5.348090 -0.000007 -0.000001 -70.973700 -16.396900 2.548360 24.328600 0.000019 0.000005 7.703970 17.035000 -24.781600 22.291600 -0.000001 0.000005 60.306400 4.369770 18.702800 12.994500 -0.242716 -4.980390 88.564400 4.676180 -72.912900 -5.348130 -0.000001 -0.000004 -75.620500 5.587140 -1.350590 -24.328900 0.000322 -0.000009 0.607944 2.151220 -15.803800 -22.291500 -0.000108 -0.000004 42.023400 5.455860 -4.850170 -2.192480 -6.469440 -0.000000 172.450000 6.483610 -26.419700 39.081100 -0.000007 -0.000012 0.142545 -0.228790 31.924500 40.985400 -0.000006 -0.000013 1.503160 10.830100 -68.755900 11.754300 -0.000000 0.000003 -0.001159 0.185271 -9.061130 -2.192510 6.469440 -0.000001 172.667000 7.121650 174.795000 -39.081100 -0.002282 -0.040193 0.310783 -0.255191 50.314700 -40.985400 0.000008 0.000006 -7.116830 -4.717790 -31.973600 -11.754300 -0.000006 -0.000006 0.001998 0.121083 -11.663100
